<?xml version="1.0" encoding="utf-8"?>
<!-- Generator: Adobe Illustrator 25.3.1, SVG Export Plug-In . SVG Version: 6.00 Build 0)  -->
<svg version="1.1" id="Layer_1" xmlns="http://www.w3.org/2000/svg" xmlns:xlink="http://www.w3.org/1999/xlink" x="0px" y="0px"
	 viewBox="0 0 250 54" style="enable-background:new 0 0 250 54;" xml:space="preserve">
<style type="text/css">
	.st0{fill:#141E3B;}
	.st1{filter:url(#Adobe_OpacityMaskFilter);}
	.st2{fill-rule:evenodd;clip-rule:evenodd;fill:#FFFFFF;}
	.st3{mask:url(#mask-2_2_);}
</style>
<desc>Created with Sketch.</desc>
<g id="E-mail">
	<g id="B2" transform="translate(-21.000000, -20.000000)">
		<g id="Branding-_x2F_-Logo-_x2F_-Basic-_x2F_-Dark" transform="translate(21.000000, 20.000000)">
			<g id="Codecademy">
				<g id="Shape">
					<path id="path-1_1_" class="st0" d="M10.3,36.4c-0.5-1.4-0.7-3.1-0.7-5.4c0-2.3,0.2-4.1,0.7-5.4c1.3-3.9,4.6-6.1,8.9-6.1
						c3.3,0,5.8,1.3,7.5,3.4c0.2,0.2,0.2,0.5-0.1,0.6l-2.8,2.5c-0.2,0.2-0.5,0.2-0.6-0.1c-1.1-1.2-2.2-1.9-4-1.9c-1.9,0-3.4,1-4,2.9
						c-0.3,1.1-0.4,2.4-0.4,4.1c0,1.7,0.1,3,0.5,4.1c0.6,1.8,2.1,2.9,4,2.9c1.8,0,2.9-0.7,4-1.9c0.2-0.2,0.4-0.2,0.6-0.1l2.8,2.5
						c0.2,0.2,0.2,0.4,0.1,0.6c-1.7,2.1-4.3,3.4-7.5,3.4C15,42.5,11.6,40.4,10.3,36.4z M107.7,36.4c-0.5-1.4-0.7-3.1-0.7-5.4
						c0-2.3,0.2-4.1,0.7-5.4c1.3-3.9,4.6-6.1,8.9-6.1c3.3,0,5.8,1.3,7.5,3.4c0.2,0.2,0.2,0.5-0.1,0.6l-2.8,2.5
						c-0.2,0.2-0.5,0.2-0.6-0.1c-1.1-1.2-2.2-1.9-4-1.9c-1.9,0-3.4,1-4,2.9c-0.4,1.1-0.5,2.4-0.5,4.1c0,1.7,0.1,3,0.5,4.1
						c0.6,1.8,2.1,2.9,4,2.9c1.8,0,2.9-0.7,4-1.9c0.2-0.2,0.4-0.2,0.6-0.1l2.8,2.5c0.2,0.2,0.2,0.4,0.1,0.6
						c-1.7,2.1-4.3,3.4-7.5,3.4C112.3,42.5,109,40.4,107.7,36.4L107.7,36.4z M221.9,42c-0.3,0-0.5-0.2-0.5-0.5V28.8
						c0-2.9-1.4-4.8-4.1-4.8c-2.6,0-4.1,2-4.1,4.8v12.7c0,0.3-0.2,0.5-0.5,0.5h-4.1c-0.3,0-0.5-0.2-0.5-0.5V28.8
						c0-2.9-1.4-4.8-4.1-4.8c-2.6,0-4.1,2-4.1,4.8v12.7c0,0.3-0.2,0.5-0.5,0.5h-4.1c-0.3,0-0.5-0.2-0.5-0.5V20.4
						c0-0.3,0.2-0.5,0.5-0.5h4.1c0.3,0,0.5,0.2,0.5,0.5V22h0.1c0.9-1.4,2.8-2.5,5.7-2.5c2.6,0,4.6,1.1,5.9,2.9h0.1
						c1.7-1.9,3.8-2.9,6.9-2.9c5,0,7.9,3.5,7.9,8.2v13.9c0,0.3-0.2,0.5-0.5,0.5L221.9,42L221.9,42z M232.3,49.8
						c-0.3,0-0.5-0.2-0.5-0.5v-3.6c0-0.3,0.2-0.5,0.5-0.5h0.8c1.7,0,2.6-0.8,3.3-2.6l0.6-1.9l-7.9-20.8c-0.1-0.3,0.1-0.5,0.4-0.5
						h4.5c0.3,0,0.5,0.2,0.5,0.5l4.9,14.4h0.1l4.7-14.4c0.1-0.3,0.3-0.5,0.5-0.5h4.3c0.3,0,0.5,0.2,0.4,0.5l-8.2,23
						c-1.9,5.2-3.7,6.9-7.3,6.9L232.3,49.8L232.3,49.8z M43.6,35.1c0.4-1.2,0.5-2.2,0.5-4.1c0-1.8-0.1-2.9-0.5-4.1
						c-0.6-1.9-2-2.9-4-2.9c-2,0-3.5,1.1-4.1,2.9C35.1,28.1,35,29.1,35,31c0,1.8,0.1,2.9,0.5,4.1c0.6,1.9,2,2.9,4.1,2.9
						C41.5,38,43,36.9,43.6,35.1z M30.6,36.4c-0.5-1.5-0.7-3-0.7-5.4c0-2.4,0.2-3.9,0.7-5.4c1.2-3.9,4.5-6.1,8.9-6.1
						c4.4,0,7.7,2.2,8.9,6.1c0.5,1.5,0.7,3,0.7,5.4c0,2.4-0.2,3.9-0.7,5.4c-1.2,3.9-4.5,6.1-8.9,6.1C35.1,42.5,31.8,40.3,30.6,36.4
						L30.6,36.4z M136.3,19.5c6.6,0,9,2.3,9.1,7.7v14.3c0,0.3-0.2,0.5-0.5,0.5h-3.8c-0.3,0-0.5-0.2-0.5-0.5v-1.6h-0.1
						c-1,1.5-3,2.5-6.1,2.5c-4,0-7.3-2.1-7.3-6.7c0-4.8,3.3-7,8.7-7h1.8c0.3,0,0.5,0.2,0.5,0.5v2.9c0,0.3-0.2,0.5-0.5,0.5h-1
						c-3.3,0-4.7,0.9-4.7,3c0,1.9,1.3,2.7,3.7,2.7c3.1,0,4.8-1.2,4.8-3.8v-7.3c-0.1-2.4-1.3-3.4-4.8-3.4c-2.4,0-3.9,0.7-4.9,1.5
						c-0.2,0.2-0.5,0.1-0.6-0.1l-1.7-3c-0.1-0.2-0.1-0.4,0.1-0.6C130.3,20.3,132.7,19.5,136.3,19.5L136.3,19.5z M83.1,28.8
						L83.1,28.8l6.1,0c0.2,0,0.3-0.1,0.3-0.3c0-0.7-0.1-1.3-0.3-1.8c-0.6-1.8-2.2-2.9-4.2-2.9c-2,0-3.7,1.1-4.2,2.9
						c-0.1,0.2-0.1,0.4-0.2,0.7v0.1c-0.2,1-0.2,1.8-0.3,3.1c0,1.1,0.1,2.1,0.3,3.2c0.1,0.3,0.2,0.6,0.3,1c0.7,2.2,2.4,3.3,4.8,3.3
						c2.5,0,4-0.9,5.1-2.1c0.2-0.3,0.5-0.3,0.7-0.1l2.6,2.4c0.2,0.2,0.2,0.4,0.1,0.6c-1.9,2.2-4.9,3.8-8.9,3.8c-4.6,0-7.8-2.3-9-6.1
						c-0.5-1.4-0.8-3.1-0.8-5.4c0-2.3,0.3-4,0.7-5.4c1.2-3.9,4.6-6.1,8.9-6.1c4.5,0,7.7,2.3,8.9,6.1c0.5,1.5,0.7,3.1,0.7,6.6
						c0,0.3-0.2,0.5-0.5,0.5H83.1c-0.2,0-0.2-0.1-0.2-0.2V29C82.9,28.8,83,28.8,83.1,28.8z M71.3,10.6c0.3,0,0.5,0.2,0.5,0.3V41
						c0,0.3-0.2,0.5-0.5,0.5h-4.1c-0.3,0-0.5-0.2-0.5-0.5v-1.6h-0.1c-1,1.5-2.8,2.6-5.7,2.6c-3.7,0-6.4-1.7-7.5-5.3
						c-0.6-1.7-0.8-3.2-0.8-6.2c0-3,0.3-4.5,0.8-6.2c1.1-3.5,3.7-5.2,7.3-5.3h3.1c0.1,0.1,0.2,0.1,0.2,0.2v4.2
						c0,0.1-0.1,0.2-0.2,0.2h-1.8c-1.9,0.1-3.3,1.1-3.9,2.9c-0.3,1-0.5,2.1-0.5,4.1s0.2,3.1,0.5,4.1c0.6,1.8,2,2.8,4,2.8
						c2,0,3.5-1,4-2.8c0.2-0.7,0.4-1.6,0.4-2.9V11.1c0-0.3,0.2-0.5,0.5-0.5H71.3z M179.7,28.8L179.7,28.8l6.1,0
						c0.2,0,0.3-0.1,0.3-0.3c0-0.7-0.1-1.3-0.3-1.8c-0.6-1.8-2.2-2.9-4.2-2.9c-2,0-3.7,1.1-4.2,2.9c-0.1,0.2-0.1,0.4-0.2,0.7v0.1
						c-0.2,1-0.2,1.8-0.3,3.1c0,1.1,0.1,2.1,0.3,3.2c0.1,0.3,0.2,0.6,0.3,1c0.7,2.2,2.4,3.3,4.8,3.3c2.5,0,4-0.9,5.1-2.1
						c0.2-0.3,0.5-0.3,0.7-0.1l2.6,2.4c0.2,0.2,0.2,0.4,0.1,0.6c-1.9,2.2-4.9,3.8-8.9,3.8c-4.6,0-7.8-2.3-9-6.1
						c-0.5-1.4-0.8-3.1-0.8-5.4c0-2.3,0.3-4,0.7-5.4c1.2-3.9,4.6-6.1,8.9-6.1c4.5,0,7.7,2.3,8.9,6.1c0.5,1.5,0.7,3.1,0.7,6.6
						c0,0.3-0.2,0.5-0.5,0.5h-11.1c-0.2,0-0.2-0.1-0.2-0.2V29C179.5,28.8,179.6,28.8,179.7,28.8z M167.8,10.6c0.3,0,0.5,0.2,0.6,0.4
						v30.1c0,0.3-0.2,0.5-0.5,0.5h-4.1c-0.3,0-0.5-0.2-0.5-0.5v-1.6h-0.1c-1.1,1.5-2.8,2.6-5.8,2.6c-3.7,0-6.4-1.7-7.5-5.3
						c-0.6-1.7-0.8-3.3-0.8-6.2c0-3,0.3-4.5,0.8-6.2c1.1-3.5,3.8-5.2,7.4-5.3h3c0.3,0,0.5,0.2,0.5,0.5v3.6c0,0.3-0.2,0.5-0.5,0.5
						h-1.8c-1.9,0.1-3.3,1.1-3.9,2.9c-0.3,1-0.5,2.1-0.5,4.1s0.2,3.1,0.5,4.1c0.6,1.8,1.9,2.9,4,2.9c2,0,3.5-1,4-2.9
						c0.2-0.7,0.4-1.6,0.4-2.9V11.1c0-0.3,0.2-0.5,0.5-0.5H167.8L167.8,10.6z M122.9,47.8c0.7,0,0.9,0.2,0.9,0.9v3.5
						c0,0.7-0.2,0.9-0.9,0.9h-14c-0.7,0-0.9-0.2-0.9-0.9v-3.5c0-0.7,0.1-0.9,0.9-0.9H122.9z M0,0.9C0,0.3,0,0,0,0h103.5
						c0.6,0,0.7,0.1,0.9,0v52.2c0,0.6-0.1,0.7,0,0.9c-0.2-0.1-0.3,0-0.9,0H0v0L0,53c0-0.1,0-0.1,0,0l0,0.1V0.9z M5.3,47.8h93.9
						c-0.1-0.1,0-0.3,0-0.9V5.3H5.3V47.8z"/>
				</g>
				<defs>
					<filter id="Adobe_OpacityMaskFilter" filterUnits="userSpaceOnUse">
						<feColorMatrix  type="matrix" values="1 0 0 0 0  0 1 0 0 0  0 0 1 0 0  0 0 0 1 0"/>
					</filter>
				</defs>
				<mask maskUnits="userSpaceOnUse" id="mask-2_2_">
					<g class="st1">
						<path id="path-1_3_" class="st2" d="M10.3,36.4c-0.5-1.4-0.7-3.1-0.7-5.4c0-2.3,0.2-4.1,0.7-5.4c1.3-3.9,4.6-6.1,8.9-6.1
							c3.3,0,5.8,1.3,7.5,3.4c0.2,0.2,0.2,0.5-0.1,0.6l-2.8,2.5c-0.2,0.2-0.5,0.2-0.6-0.1c-1.1-1.2-2.2-1.9-4-1.9
							c-1.9,0-3.4,1-4,2.9c-0.3,1.1-0.4,2.4-0.4,4.1c0,1.7,0.1,3,0.5,4.1c0.6,1.8,2.1,2.9,4,2.9c1.8,0,2.9-0.7,4-1.9
							c0.2-0.2,0.4-0.2,0.6-0.1l2.8,2.5c0.2,0.2,0.2,0.4,0.1,0.6c-1.7,2.1-4.3,3.4-7.5,3.4C15,42.5,11.6,40.4,10.3,36.4z
							 M107.7,36.4c-0.5-1.4-0.7-3.1-0.7-5.4c0-2.3,0.2-4.1,0.7-5.4c1.3-3.9,4.6-6.1,8.9-6.1c3.3,0,5.8,1.3,7.5,3.4
							c0.2,0.2,0.2,0.5-0.1,0.6l-2.8,2.5c-0.2,0.2-0.5,0.2-0.6-0.1c-1.1-1.2-2.2-1.9-4-1.9c-1.9,0-3.4,1-4,2.9
							c-0.4,1.1-0.5,2.4-0.5,4.1c0,1.7,0.1,3,0.5,4.1c0.6,1.8,2.1,2.9,4,2.9c1.8,0,2.9-0.7,4-1.9c0.2-0.2,0.4-0.2,0.6-0.1l2.8,2.5
							c0.2,0.2,0.2,0.4,0.1,0.6c-1.7,2.1-4.3,3.4-7.5,3.4C112.3,42.5,109,40.4,107.7,36.4L107.7,36.4z M221.9,42
							c-0.3,0-0.5-0.2-0.5-0.5V28.8c0-2.9-1.4-4.8-4.1-4.8c-2.6,0-4.1,2-4.1,4.8v12.7c0,0.3-0.2,0.5-0.5,0.5h-4.1
							c-0.3,0-0.5-0.2-0.5-0.5V28.8c0-2.9-1.4-4.8-4.1-4.8c-2.6,0-4.1,2-4.1,4.8v12.7c0,0.3-0.2,0.5-0.5,0.5h-4.1
							c-0.3,0-0.5-0.2-0.5-0.5V20.4c0-0.3,0.2-0.5,0.5-0.5h4.1c0.3,0,0.5,0.2,0.5,0.5V22h0.1c0.9-1.4,2.8-2.5,5.7-2.5
							c2.6,0,4.6,1.1,5.9,2.9h0.1c1.7-1.9,3.8-2.9,6.9-2.9c5,0,7.9,3.5,7.9,8.2v13.9c0,0.3-0.2,0.5-0.5,0.5L221.9,42L221.9,42z
							 M232.3,49.8c-0.3,0-0.5-0.2-0.5-0.5v-3.6c0-0.3,0.2-0.5,0.5-0.5h0.8c1.7,0,2.6-0.8,3.3-2.6l0.6-1.9l-7.9-20.8
							c-0.1-0.3,0.1-0.5,0.4-0.5h4.5c0.3,0,0.5,0.2,0.5,0.5l4.9,14.4h0.1l4.7-14.4c0.1-0.3,0.3-0.5,0.5-0.5h4.3
							c0.3,0,0.5,0.2,0.4,0.5l-8.2,23c-1.9,5.2-3.7,6.9-7.3,6.9L232.3,49.8L232.3,49.8z M43.6,35.1c0.4-1.2,0.5-2.2,0.5-4.1
							c0-1.8-0.1-2.9-0.5-4.1c-0.6-1.9-2-2.9-4-2.9c-2,0-3.5,1.1-4.1,2.9C35.1,28.1,35,29.1,35,31c0,1.8,0.1,2.9,0.5,4.1
							c0.6,1.9,2,2.9,4.1,2.9C41.5,38,43,36.9,43.6,35.1z M30.6,36.4c-0.5-1.5-0.7-3-0.7-5.4c0-2.4,0.2-3.9,0.7-5.4
							c1.2-3.9,4.5-6.1,8.9-6.1c4.4,0,7.7,2.2,8.9,6.1c0.5,1.5,0.7,3,0.7,5.4c0,2.4-0.2,3.9-0.7,5.4c-1.2,3.9-4.5,6.1-8.9,6.1
							C35.1,42.5,31.8,40.3,30.6,36.4L30.6,36.4z M136.3,19.5c6.6,0,9,2.3,9.1,7.7v14.3c0,0.3-0.2,0.5-0.5,0.5h-3.8
							c-0.3,0-0.5-0.2-0.5-0.5v-1.6h-0.1c-1,1.5-3,2.5-6.1,2.5c-4,0-7.3-2.1-7.3-6.7c0-4.8,3.3-7,8.7-7h1.8c0.3,0,0.5,0.2,0.5,0.5
							v2.9c0,0.3-0.2,0.5-0.5,0.5h-1c-3.3,0-4.7,0.9-4.7,3c0,1.9,1.3,2.7,3.7,2.7c3.1,0,4.8-1.2,4.8-3.8v-7.3
							c-0.1-2.4-1.3-3.4-4.8-3.4c-2.4,0-3.9,0.7-4.9,1.5c-0.2,0.2-0.5,0.1-0.6-0.1l-1.7-3c-0.1-0.2-0.1-0.4,0.1-0.6
							C130.3,20.3,132.7,19.5,136.3,19.5L136.3,19.5z M83.1,28.8L83.1,28.8l6.1,0c0.2,0,0.3-0.1,0.3-0.3c0-0.7-0.1-1.3-0.3-1.8
							c-0.6-1.8-2.2-2.9-4.2-2.9c-2,0-3.7,1.1-4.2,2.9c-0.1,0.2-0.1,0.4-0.2,0.7v0.1c-0.2,1-0.2,1.8-0.3,3.1c0,1.1,0.1,2.1,0.3,3.2
							c0.1,0.3,0.2,0.6,0.3,1c0.7,2.2,2.4,3.3,4.8,3.3c2.5,0,4-0.9,5.1-2.1c0.2-0.3,0.5-0.3,0.7-0.1l2.6,2.4
							c0.2,0.2,0.2,0.4,0.1,0.6c-1.9,2.2-4.9,3.8-8.9,3.8c-4.6,0-7.8-2.3-9-6.1c-0.5-1.4-0.8-3.1-0.8-5.4c0-2.3,0.3-4,0.7-5.4
							c1.2-3.9,4.6-6.1,8.9-6.1c4.5,0,7.7,2.3,8.9,6.1c0.5,1.5,0.7,3.1,0.7,6.6c0,0.3-0.2,0.5-0.5,0.5H83.1c-0.2,0-0.2-0.1-0.2-0.2
							V29C82.9,28.8,83,28.8,83.1,28.8z M71.3,10.6c0.3,0,0.5,0.2,0.5,0.3V41c0,0.3-0.2,0.5-0.5,0.5h-4.1c-0.3,0-0.5-0.2-0.5-0.5
							v-1.6h-0.1c-1,1.5-2.8,2.6-5.7,2.6c-3.7,0-6.4-1.7-7.5-5.3c-0.6-1.7-0.8-3.2-0.8-6.2c0-3,0.3-4.5,0.8-6.2
							c1.1-3.5,3.7-5.2,7.3-5.3h3.1c0.1,0.1,0.2,0.1,0.2,0.2v4.2c0,0.1-0.1,0.2-0.2,0.2h-1.8c-1.9,0.1-3.3,1.1-3.9,2.9
							c-0.3,1-0.5,2.1-0.5,4.1s0.2,3.1,0.5,4.1c0.6,1.8,2,2.8,4,2.8c2,0,3.5-1,4-2.8c0.2-0.7,0.4-1.6,0.4-2.9V11.1
							c0-0.3,0.2-0.5,0.5-0.5H71.3z M179.7,28.8L179.7,28.8l6.1,0c0.2,0,0.3-0.1,0.3-0.3c0-0.7-0.1-1.3-0.3-1.8
							c-0.6-1.8-2.2-2.9-4.2-2.9c-2,0-3.7,1.1-4.2,2.9c-0.1,0.2-0.1,0.4-0.2,0.7v0.1c-0.2,1-0.2,1.8-0.3,3.1c0,1.1,0.1,2.1,0.3,3.2
							c0.1,0.3,0.2,0.6,0.3,1c0.7,2.2,2.4,3.3,4.8,3.3c2.5,0,4-0.9,5.1-2.1c0.2-0.3,0.5-0.3,0.7-0.1l2.6,2.4
							c0.2,0.2,0.2,0.4,0.1,0.6c-1.9,2.2-4.9,3.8-8.9,3.8c-4.6,0-7.8-2.3-9-6.1c-0.5-1.4-0.8-3.1-0.8-5.4c0-2.3,0.3-4,0.7-5.4
							c1.2-3.9,4.6-6.1,8.9-6.1c4.5,0,7.7,2.3,8.9,6.1c0.5,1.5,0.7,3.1,0.7,6.6c0,0.3-0.2,0.5-0.5,0.5h-11.1c-0.2,0-0.2-0.1-0.2-0.2
							V29C179.5,28.8,179.6,28.8,179.7,28.8z M167.8,10.6c0.3,0,0.5,0.2,0.6,0.4v30.1c0,0.3-0.2,0.5-0.5,0.5h-4.1
							c-0.3,0-0.5-0.2-0.5-0.5v-1.6h-0.1c-1.1,1.5-2.8,2.6-5.8,2.6c-3.7,0-6.4-1.7-7.5-5.3c-0.6-1.7-0.8-3.3-0.8-6.2
							c0-3,0.3-4.5,0.8-6.2c1.1-3.5,3.8-5.2,7.4-5.3h3c0.3,0,0.5,0.2,0.5,0.5v3.6c0,0.3-0.2,0.5-0.5,0.5h-1.8
							c-1.9,0.1-3.3,1.1-3.9,2.9c-0.3,1-0.5,2.1-0.5,4.1s0.2,3.1,0.5,4.1c0.6,1.8,1.9,2.9,4,2.9c2,0,3.5-1,4-2.9
							c0.2-0.7,0.4-1.6,0.4-2.9V11.1c0-0.3,0.2-0.5,0.5-0.5H167.8L167.8,10.6z M122.9,47.8c0.7,0,0.9,0.2,0.9,0.9v3.5
							c0,0.7-0.2,0.9-0.9,0.9h-14c-0.7,0-0.9-0.2-0.9-0.9v-3.5c0-0.7,0.1-0.9,0.9-0.9H122.9z M0,0.9C0,0.3,0.1,0.1,0,0h103.5
							c0.6,0,0.7,0.1,0.9,0v52.2c0,0.6-0.1,0.7,0,0.9c-0.2-0.1-0.3,0-0.9,0H0v0L0,53c0-0.1,0-0.1,0,0l0,0.1V0.9z M5.3,47.8h93.9
							c-0.1-0.1,0-0.3,0-0.9V5.3H5.3V47.8z"/>
					</g>
				</mask>
				<g id="System-_x2F_-Color-_x2F_-Brand-_x2F_-Dark-Blue" class="st3">
				</g>
			</g>
		</g>
	</g>
</g>
</svg>
