<?xml version="1.0" standalone="no"?>
<!DOCTYPE svg PUBLIC "-//W3C//DTD SVG 20010904//EN"
 "http://www.w3.org/TR/2001/REC-SVG-20010904/DTD/svg10.dtd">
<svg version="1.0" xmlns="http://www.w3.org/2000/svg"
 width="200.000000pt" height="200.000000pt" viewBox="0 0 200.000000 200.000000"
 preserveAspectRatio="xMidYMid meet">
<metadata>
Created by potrace 1.14, written by Peter Selinger 2001-2017
</metadata>
<g transform="translate(0.000000,200.000000) scale(0.100000,-0.100000)"
fill="#000000" stroke="none">
<path d="M820 1933 c-94 -19 -154 -40 -245 -85 -258 -128 -438 -360 -506 -653
-18 -76 -20 -280 -3 -365 77 -408 393 -711 803 -771 147 -21 368 5 481 57 155
72 254 139 335 226 128 137 210 296 248 479 18 86 19 258 1 350 -76 399 -378
695 -784 768 -75 13 -251 10 -330 -6z"/>
</g>
</svg>
